<?xml version="1.0" encoding="utf-8"?>
<!-- Generator: Adobe Illustrator 17.0.0, SVG Export Plug-In . SVG Version: 6.00 Build 0)  -->
<!DOCTYPE svg PUBLIC "-//W3C//DTD SVG 1.1//EN" "http://www.w3.org/Graphics/SVG/1.1/DTD/svg11.dtd">
<svg version="1.1" id="Capa_1" xmlns="http://www.w3.org/2000/svg" xmlns:xlink="http://www.w3.org/1999/xlink" x="0px" y="0px"
	 width="512px" height="512px" viewBox="0 0 512 512" enable-background="new 0 0 512 512" xml:space="preserve">
<rect fill="#FF0000" width="512" height="512"/>
<path fill="#FFFFFF" d="M221.902,40.973c0.412,0,0.627,4.074,0.627,12.224c0,8.149,0,17.033,0,26.641
	c0,11.705-0.215,24.869-0.627,39.492c-12.958,0-26.014,1.156-39.178,3.448c-13.164,2.302-24.869,5.857-35.104,10.657
	c-10.245,4.809-18.6,10.559-25.074,17.238c-6.484,6.69-9.716,14.418-9.716,23.194c0,7.522,2.821,14.006,8.462,19.432
	c5.642,5.436,12.537,10.872,20.686,16.299c8.149,5.436,17.131,11.391,26.955,17.865c9.814,6.483,18.806,14.104,26.955,22.88
	s15.044,19.433,20.686,31.97s8.462,27.797,8.462,45.76c0,26.75-4.917,49.63-14.731,68.641
	c-9.824,19.021-23.193,34.692-40.119,47.015c-16.925,12.331-36.671,21.421-59.238,27.268c-22.566,5.857-46.387,8.776-71.461,8.776
	v-78.356c7.522,0,17.336-1.254,29.462-3.762c12.116-2.507,23.918-6.68,35.417-12.537c11.489-5.847,21.411-13.575,29.776-23.193
	c8.354-9.608,12.321-21.519,11.91-35.73c0-7.102-2.723-13.262-8.149-18.492c-5.436-5.221-12.224-10.441-20.373-15.672
	c-8.149-5.22-16.827-10.862-26.014-16.925c-9.197-6.053-17.866-13.575-26.015-22.566c-8.149-8.982-14.839-19.746-20.06-32.283
	c-5.23-12.537-7.835-27.993-7.835-46.387c0-19.217,5.534-36.984,16.612-53.283c11.068-16.298,25.387-30.295,42.939-41.999
	c17.552-11.695,37.298-20.892,59.238-27.582C178.336,44.322,200.168,40.973,221.902,40.973z"/>
<path fill="#FFFFFF" d="M324.076,40.973l35.104,264.532l36.984-264.532h78.984l-69.582,438.798h-92.773L242.584,40.973H324.076z"/>
</svg>
